<svg xmlns="http://www.w3.org/2000/svg" height="56" viewBox="0 0 212 56" width="212" fill="#005789">
    <path d="M17.1 11.273C6.6 11.273.5 19.072.5 29.172c0 9.8 6.2 17.701 16.7 17.701s16.699-7.901 16.699-17.701c-.1-10.1-6.2-17.899-16.8-17.899zm81.7.8v34h25.8v-6.3h-18.3v-8.4h16.4v-5.8h-16.4v-7.3h17.9v-6.2zm89.599 0v34h6.8V33.171c0-5 1.6-7 5.2-7 3.1 0 4.3 2 4.3 6v13.9h6.7V30.873c.1-6.1-1.699-10.1-8.899-10.1-2.5 0-5.5 1.3-7.2 4.1h-.1v-12.8zm-13.7 2v7.4h-4.1v4.5h4.1v14.5c0 4.9 3.6 5.9 7.7 5.9 1.3 0 2.8-.001 3.9-.201v-5.299c-.7.1-1.4.2-2.1.2-2.3 0-2.9-.601-2.9-2.901v-12.2h4.9v-4.5H181.5v-7.4h-6.8zm-157.6 3.4c6.7 0 9.2 5.699 9.2 11.699.1 5.7-2.5 11.4-9.2 11.4-6.7 0-9.2-5.7-9.2-11.4 0-5.9 2.5-11.7 9.2-11.7zm33 3.3c-2.9 0-5.8 1.3-7.5 4.1H42.5v-3.4h-6.4v24.6h6.7V33.171c0-5 1.6-7 5.2-7 3.1 0 4.3 2 4.3 6v13.9H59V30.873c.1-6.1-1.7-10.1-8.9-10.1zm23.3 0c-7.5 0-12.6 5.6-12.6 13 0 7.6 4.8 12.899 12.6 12.899 5.6 0 9.6-2.499 11.5-8.299H79c-.4 1.5-2.6 3.2-5.3 3.2-3.8 0-5.8-2-6-6.2h17.699c.4-7.6-3.7-14.6-12-14.6zm65.601 0c-5.5 0-11.201 1.9-11.601 8.2h6.7c.2-2.7 1.9-3.7 4.5-3.7 2.4 0 4.401.4 4.401 3.3 0 2.8-3.9 2.6-8 3.2-4.2.6-8.4 1.9-8.4 7.5 0 5 3.7 7.399 8.4 7.399 3 0 6.1-.8 8.3-3 0 .8.2 1.6.5 2.4h6.8c-.6-1-.9-3.2-.9-5.5V27.773h.1c0-5.9-5.9-7-10.8-7zm28.1 0c-3.2 0-6.5 2.1-7.8 5.2l-.1-4.6h-6.4v24.6h6.7v-11c0-4.3 1.7-7.9 6.7-7.9.8 0 1.8.1 2.4.2v-6.3c-.4-.1-1-.2-1.5-.2zm-93.9 5.1c3.3 0 4.8 1.8 5.4 5.2h-11c.1-1.9 1.3-5.2 5.6-5.2zm69.8 8.2v2.4c0 1.5-.2 5.699-5.5 5.699-2.2 0-4.101-.6-4.101-3.1s1.9-3.2 4-3.6c2.1-.4 4.501-.4 5.601-1.4z" id="logo"/>
</svg>
